<svg width="18" height="16" viewBox="0 0 18 16" fill="none" xmlns="http://www.w3.org/2000/svg">
<path fill-rule="evenodd" clip-rule="evenodd" d="M10.9096 1.62706C10.96 1.33373 10.7555 1.0563 10.4528 1.00741C10.15 0.958521 9.86371 1.15668 9.81326 1.45002L7.59043 14.3729C7.53997 14.6663 7.74448 14.9437 8.04722 14.9926C8.34995 15.0415 8.63626 14.8433 8.68672 14.55L10.9096 1.62706ZM14.6007 13.8844C14.3157 13.774 14.1771 13.4606 14.2911 13.1845L16.3488 8.19992C16.4018 8.07155 16.4018 7.92834 16.3488 7.79997L14.2911 2.81537C14.1771 2.53926 14.3157 2.2259 14.6007 2.11545C14.8857 2.00501 15.2091 2.13931 15.323 2.41542L17.3808 7.40001C17.5397 7.78514 17.5397 8.21476 17.3808 8.59988L15.323 13.5845C15.2091 13.8606 14.8857 13.9949 14.6007 13.8844ZM3.89931 2.11633C4.18427 2.22677 4.32287 2.54014 4.20888 2.81625L2.15116 7.80085C2.09817 7.92922 2.09817 8.07243 2.15116 8.2008L4.20888 13.1854C4.32287 13.4615 4.18427 13.7749 3.89931 13.8853C3.61435 13.9958 3.29094 13.8615 3.17696 13.5854L1.11924 8.60076C0.960254 8.21563 0.960254 7.78601 1.11924 7.40089L3.17696 2.4163C3.29094 2.14018 3.61435 2.00589 3.89931 2.11633Z" fill="#979899"/>
<path d="M10.4528 1.00741L10.4368 1.10613V1.10613L10.4528 1.00741ZM10.9096 1.62706L10.811 1.61011V1.61011L10.9096 1.62706ZM9.81326 1.45002L9.7147 1.43307V1.43307L9.81326 1.45002ZM7.59043 14.3729L7.49187 14.356L7.59043 14.3729ZM8.04722 14.9926L8.03127 15.0913L8.04722 14.9926ZM8.68672 14.55L8.78527 14.5669L8.68672 14.55ZM14.2911 13.1845L14.3835 13.2227L14.2911 13.1845ZM14.6007 13.8844L14.5646 13.9777L14.6007 13.8844ZM16.3488 8.19992L16.2564 8.16177V8.16177L16.3488 8.19992ZM16.3488 7.79997L16.2564 7.83813L16.3488 7.79997ZM14.2911 2.81537L14.1987 2.85353L14.2911 2.81537ZM14.6007 2.11545L14.6368 2.2087V2.2087L14.6007 2.11545ZM15.323 2.41542L15.4155 2.37726V2.37726L15.323 2.41542ZM17.3808 7.40001L17.2883 7.43817V7.43817L17.3808 7.40001ZM17.3808 8.59988L17.2883 8.56172V8.56172L17.3808 8.59988ZM15.323 13.5845L15.4155 13.6226L15.323 13.5845ZM4.20888 2.81625L4.11645 2.77809L4.20888 2.81625ZM3.89931 2.11633L3.93545 2.02309L3.89931 2.11633ZM2.15116 7.80085L2.24359 7.839L2.2436 7.839L2.15116 7.80085ZM2.15116 8.2008L2.2436 8.16264L2.15116 8.2008ZM4.20888 13.1854L4.30132 13.1472H4.30132L4.20888 13.1854ZM3.89931 13.8853L3.93545 13.9786L3.89931 13.8853ZM3.17696 13.5854L3.26939 13.5472L3.17696 13.5854ZM1.11924 8.60076L1.0268 8.63891H1.0268L1.11924 8.60076ZM1.11924 7.40089L1.21167 7.43905L1.11924 7.40089ZM3.17696 2.4163L3.26939 2.45445L3.17696 2.4163ZM10.4368 1.10613C10.6875 1.14661 10.8515 1.37439 10.811 1.61011L11.0081 1.64401C11.0685 1.29306 10.8235 0.965988 10.4687 0.908689L10.4368 1.10613ZM9.91181 1.46697C9.95251 1.23038 10.1855 1.06554 10.4368 1.10613L10.4687 0.908689C10.1146 0.851504 9.77492 1.08299 9.7147 1.43307L9.91181 1.46697ZM7.68898 14.3899L9.91181 1.46697L9.7147 1.43307L7.49187 14.356L7.68898 14.3899ZM8.06316 14.8939C7.8125 14.8534 7.64843 14.6256 7.68898 14.3899L7.49187 14.356C7.43151 14.7069 7.67646 15.034 8.03127 15.0913L8.06316 14.8939ZM8.58817 14.533C8.54747 14.7696 8.31452 14.9345 8.06316 14.8939L8.03127 15.0913C8.38538 15.1485 8.72506 14.917 8.78527 14.5669L8.58817 14.533ZM10.811 1.61011L8.58817 14.533L8.78527 14.5669L11.0081 1.64401L10.811 1.61011ZM14.1987 13.1464C14.0625 13.4764 14.2294 13.8478 14.5646 13.9777L14.6368 13.7912C14.4021 13.7002 14.2918 13.4449 14.3835 13.2227L14.1987 13.1464ZM16.2564 8.16177L14.1987 13.1464L14.3835 13.2227L16.4413 8.23808L16.2564 8.16177ZM16.2564 7.83813C16.2993 7.94206 16.2993 8.05783 16.2564 8.16177L16.4413 8.23808C16.5044 8.08527 16.5044 7.91462 16.4413 7.76181L16.2564 7.83813ZM14.1987 2.85353L16.2564 7.83813L16.4413 7.76181L14.3836 2.77722L14.1987 2.85353ZM14.5646 2.02221C14.2294 2.15211 14.0625 2.52354 14.1987 2.85353L14.3836 2.77722C14.2918 2.55498 14.4021 2.29968 14.6368 2.2087L14.5646 2.02221ZM15.4155 2.37726C15.2799 2.04897 14.8983 1.89287 14.5646 2.02221L14.6368 2.2087C14.873 2.11715 15.1382 2.22965 15.2306 2.45358L15.4155 2.37726ZM17.4732 7.36186L15.4155 2.37726L15.2306 2.45358L17.2883 7.43817L17.4732 7.36186ZM17.4732 8.63804C17.6423 8.22848 17.6423 7.77142 17.4732 7.36186L17.2883 7.43817C17.4372 7.79886 17.4372 8.20104 17.2883 8.56172L17.4732 8.63804ZM15.4155 13.6226L17.4732 8.63804L17.2883 8.56172L15.2306 13.5463L15.4155 13.6226ZM14.5646 13.9777C14.8983 14.107 15.2799 13.9509 15.4155 13.6226L15.2306 13.5463C15.1382 13.7702 14.873 13.8827 14.6368 13.7912L14.5646 13.9777ZM4.30132 2.85441C4.43754 2.52442 4.27061 2.15299 3.93545 2.02309L3.86317 2.20957C4.09792 2.30056 4.20819 2.55586 4.11645 2.77809L4.30132 2.85441ZM2.2436 7.839L4.30132 2.85441L4.11645 2.77809L2.05873 7.76269L2.2436 7.839ZM2.2436 8.16264C2.20069 8.05871 2.20069 7.94294 2.24359 7.839L2.05873 7.76269C1.99564 7.9155 1.99564 8.08615 2.05873 8.23896L2.2436 8.16264ZM4.30132 13.1472L2.2436 8.16264L2.05873 8.23896L4.11645 13.2236L4.30132 13.1472ZM3.93545 13.9786C4.27061 13.8487 4.43754 13.4772 4.30132 13.1472L4.11645 13.2236C4.20819 13.4458 4.09792 13.7011 3.86317 13.7921L3.93545 13.9786ZM3.08453 13.6235C3.22005 13.9518 3.60174 14.1079 3.93545 13.9786L3.86317 13.7921C3.62696 13.8836 3.36184 13.7711 3.26939 13.5472L3.08453 13.6235ZM1.0268 8.63891L3.08453 13.6235L3.26939 13.5472L1.21167 8.5626L1.0268 8.63891ZM1.0268 7.36273C0.857732 7.77229 0.857732 8.22935 1.0268 8.63891L1.21167 8.5626C1.06278 8.20191 1.06278 7.79973 1.21167 7.43905L1.0268 7.36273ZM3.08453 2.37814L1.0268 7.36273L1.21167 7.43905L3.26939 2.45445L3.08453 2.37814ZM3.93545 2.02309C3.60174 1.89375 3.22005 2.04985 3.08453 2.37814L3.26939 2.45445C3.36184 2.23052 3.62696 2.11802 3.86317 2.20957L3.93545 2.02309Z" fill="#979899"/>
</svg>