<svg width="16" height="16" viewBox="0 0 16 16" fill="none" xmlns="http://www.w3.org/2000/svg">
<circle cx="8" cy="8" r="7.4" stroke="#979899" stroke-width="1.2"/>
<path d="M7.35294 9.57939C7.35294 9.22006 7.41569 8.91504 7.54118 8.66435C7.66667 8.40529 7.81569 8.19638 7.98823 8.0376C8.16078 7.87047 8.39216 7.68245 8.68235 7.47354C9.01176 7.2312 9.25098 7.02646 9.4 6.85933C9.54902 6.6922 9.62353 6.47911 9.62353 6.22006V5.7688C9.62353 5.47632 9.52549 5.23816 9.32941 5.05432C9.13333 4.87047 8.87451 4.77855 8.55294 4.77855H7.54118C7.18824 4.77855 6.90196 4.9039 6.68235 5.1546C6.47059 5.39694 6.36471 5.71448 6.36471 6.10724H5C5 5.58914 5.10588 5.1337 5.31765 4.74095C5.52941 4.34819 5.82745 4.04318 6.21176 3.8259C6.59608 3.60863 7.03922 3.5 7.54118 3.5H8.55294C9.03922 3.5 9.46667 3.5961 9.83529 3.7883C10.2039 3.97214 10.4902 4.23538 10.6941 4.57799C10.898 4.92061 11 5.31755 11 5.7688V6.22006C11 6.57103 10.9412 6.86769 10.8235 7.11003C10.7137 7.35237 10.5765 7.54875 10.4118 7.69916C10.2471 7.84958 10.0275 8.01671 9.75294 8.20056C9.40784 8.43454 9.14902 8.65599 8.97647 8.8649C8.81176 9.06546 8.72941 9.33705 8.72941 9.67967V9.99304H7.35294V9.57939ZM8.04706 12.5C7.78824 12.5 7.58039 12.4164 7.42353 12.2493C7.26667 12.0822 7.18824 11.8607 7.18824 11.585C7.18824 11.3175 7.26667 11.1003 7.42353 10.9331C7.58039 10.766 7.78824 10.6825 8.04706 10.6825C8.29804 10.6825 8.50196 10.766 8.65882 10.9331C8.81569 11.1003 8.89412 11.3175 8.89412 11.585C8.89412 11.8607 8.81569 12.0822 8.65882 12.2493C8.50196 12.4164 8.29804 12.5 8.04706 12.5Z" fill="#979899"/>
</svg>
