<svg width="16" height="16" viewBox="0 0 16 16" fill="none" xmlns="http://www.w3.org/2000/svg">
<path fill-rule="evenodd" clip-rule="evenodd" d="M1.99822 0L1.98529 4.09868e-05C0.887652 0.00700707 0 0.89975 0 2V14C0 15.0561 0.817869 15.921 1.85426 15.9949C1.9018 15.9983 1.94981 16 1.99823 16H10.9902C11.0334 16 11.0762 15.9986 11.1187 15.9959C12.1624 15.9296 12.9885 15.0614 12.9885 14V10.2569L15.7074 7.53553C16.0975 7.14501 16.0975 6.51184 15.7074 6.12132L14.2944 4.70711C13.9382 4.35055 13.3799 4.31954 12.9885 4.61406V2C12.9885 0.901532 12.1037 0.00989827 11.0085 8.17244e-05L10.9902 0H1.99822ZM11.9893 5.6V2C11.9893 1.46493 11.5695 1.02802 11.0415 1.0013C11.0245 1.00044 11.0074 1 10.9902 1H1.99822C1.98962 1 1.98104 1.00011 1.97249 1.00033C1.43259 1.01399 0.999112 1.45633 0.999112 2V14C0.999112 14.5351 1.41897 14.972 1.94693 14.9987C1.96392 14.9996 1.98102 15 1.99823 15H10.9902C11.0145 15 11.0385 14.9991 11.0624 14.9974C11.5805 14.9604 11.9893 14.528 11.9893 14V11.2569L9.34905 13.8995C9.12669 14.1221 8.8126 14.2269 8.50128 14.1823L7.26494 14.0056C6.82535 13.9427 6.47996 13.597 6.41717 13.157L6.24055 11.9196C6.19607 11.608 6.30077 11.2936 6.52314 11.0711L11.9893 5.6ZM10 3.49956C10 3.77594 9.77614 4 9.5 4H3.5C3.22386 4 3 3.77594 3 3.49956C3 3.22317 3.22386 2.99911 3.5 2.99911H9.5C9.77614 2.99911 10 3.22317 10 3.49956ZM9 5.50044C9 5.77683 8.77614 6.00089 8.5 6.00089H3.5C3.22386 6.00089 3 5.77683 3 5.50044C3 5.22406 3.22386 5 3.5 5H8.5C8.77614 5 9 5.22406 9 5.50044ZM5.50044 8C5.77634 8 6 7.77614 6 7.5C6 7.22386 5.77634 7 5.50044 7H3.50311C3.22721 7 3.00355 7.22386 3.00355 7.5C3.00355 7.77614 3.22721 8 3.50311 8H5.50044ZM13.5879 5.41421L15.0009 6.82843L8.64258 13.1924L7.40624 13.0156L7.22962 11.7782L13.5879 5.41421Z" fill="#979899"/>
</svg>