<svg width="16" height="16" viewBox="0 0 16 16" fill="none" xmlns="http://www.w3.org/2000/svg">
<path fill-rule="evenodd" clip-rule="evenodd" d="M14.9333 8C14.9333 9.73319 14.2974 11.3179 13.2461 12.5334L11.364 10.6248C11.9296 9.9009 12.2667 8.98981 12.2667 8C12.2667 7.00127 11.9235 6.08269 11.3487 5.35572L13.2444 3.46475C14.2967 4.6805 14.9333 6.2659 14.9333 8ZM8 14.9333C9.74246 14.9333 11.3348 14.2906 12.5528 13.2292L10.6746 11.3245C9.94293 11.9139 9.01267 12.2667 8 12.2667C6.99741 12.2667 6.07558 11.9209 5.34729 11.342L3.45155 13.233C4.66901 14.2921 6.25962 14.9333 8 14.9333ZM2.75556 12.5353C1.70329 11.3195 1.06667 9.7341 1.06667 8C1.06667 6.26691 1.70254 4.68235 2.75372 3.46688L4.63599 5.37521C4.07039 6.09907 3.73333 7.01017 3.73333 8C3.73333 8.99873 4.07648 9.91731 4.65131 10.6443L2.75556 12.5353ZM8 3.73333C6.98735 3.73333 6.0571 4.08611 5.32544 4.67548L3.44697 2.771C4.66502 1.70952 6.25744 1.06667 8 1.06667C9.74038 1.06667 11.331 1.70791 12.5485 2.76702L10.6527 4.65799C9.92442 4.07914 9.00259 3.73333 8 3.73333ZM16 8C16 12.4183 12.4183 16 8 16C3.58172 16 0 12.4183 0 8C0 3.58172 3.58172 0 8 0C12.4183 0 16 3.58172 16 8ZM11.2 8C11.2 9.76731 9.76731 11.2 8 11.2C6.23269 11.2 4.8 9.76731 4.8 8C4.8 6.23269 6.23269 4.8 8 4.8C9.76731 4.8 11.2 6.23269 11.2 8Z" fill="#979899"/>
</svg>