<svg width="16" height="17" viewBox="0 0 16 17" fill="none" xmlns="http://www.w3.org/2000/svg">
<path d="M7.49643 0.178671C7.78988 -0.0595573 8.21012 -0.0595568 8.50357 0.178671L9.97226 1.37098C10.1261 1.49585 10.3208 1.55912 10.5186 1.54851L12.4076 1.44718C12.7851 1.42693 13.125 1.67394 13.2224 2.03916L13.7098 3.86703C13.7608 4.05846 13.8812 4.2241 14.0475 4.3318L15.6353 5.36016C15.9525 5.56563 16.0824 5.9653 15.9465 6.318L15.2664 8.08325C15.1952 8.26812 15.1952 8.47286 15.2664 8.65773L15.9465 10.423C16.0824 10.7757 15.9525 11.1754 15.6353 11.3808L14.0475 12.4092C13.8812 12.5169 13.7608 12.6825 13.7098 12.874L13.2224 14.7018C13.125 15.067 12.7851 15.3141 12.4076 15.2938L10.5186 15.1925C10.3208 15.1819 10.1261 15.2451 9.97226 15.37L8.50357 16.5623C8.21012 16.8005 7.78988 16.8005 7.49643 16.5623L6.02774 15.37C5.87393 15.2451 5.67921 15.1819 5.48138 15.1925L3.59236 15.2938C3.21493 15.3141 2.87495 15.067 2.77757 14.7018L2.2902 12.874C2.23916 12.6825 2.11882 12.5169 1.95253 12.4092L0.364725 11.3808C0.0474759 11.1754 -0.0823842 10.7757 0.0535036 10.423L0.733611 8.65773C0.804836 8.47286 0.804836 8.26812 0.73361 8.08325L0.0535033 6.318C-0.0823844 5.9653 0.0474765 5.56563 0.364726 5.36016L1.95253 4.3318C2.11882 4.2241 2.23916 4.05846 2.2902 3.86703L2.77757 2.03916C2.87495 1.67394 3.21493 1.42693 3.59236 1.44718L5.48138 1.54851C5.67921 1.55912 5.87393 1.49585 6.02774 1.37098L7.49643 0.178671Z" fill="#F71963"/>
<path fill-rule="evenodd" clip-rule="evenodd" d="M12.0131 5.91666C12.3142 6.20106 12.3278 6.67574 12.0434 6.97688L7.79335 11.4769C7.6415 11.6377 7.42642 11.7232 7.20561 11.7107C6.98481 11.6982 6.78079 11.5888 6.64809 11.4119L4.39809 8.41192C4.14956 8.08054 4.21672 7.61044 4.54809 7.36192C4.87946 7.11339 5.34956 7.18055 5.59809 7.51192L7.31401 9.79981L10.9528 5.94695C11.2372 5.64581 11.7119 5.63225 12.0131 5.91666Z" fill="white"/>
</svg>
