<svg width="18" height="18" viewBox="0 0 18 18" fill="none" xmlns="http://www.w3.org/2000/svg">
<path fill-rule="evenodd" clip-rule="evenodd" d="M16.7253 1.04259C16.6657 1.01525 16.5993 1 16.5294 1H12.7647C12.5048 1 12.2941 1.21069 12.2941 1.47059C12.2941 1.73049 12.5048 1.94118 12.7647 1.94118L15.3933 1.94118L6.78489 10.5496C6.60112 10.7334 6.60112 11.0314 6.7849 11.2151C6.96867 11.3989 7.26663 11.3989 7.45041 11.2151L16.0588 2.6067V5.23529C16.0588 5.49519 16.2695 5.70588 16.5294 5.70588C16.7893 5.70588 17 5.49519 17 5.23529V1.47059C17 1.40406 16.9862 1.34076 16.9613 1.28339C16.9421 1.23903 16.9157 1.19703 16.8822 1.15913C16.8687 1.14382 16.8541 1.12939 16.8388 1.11595C16.8039 1.0855 16.7657 1.06105 16.7253 1.04259ZM15.1176 15.5882V8.9276C15.1176 8.66771 15.3283 8.45702 15.5882 8.45702C15.8481 8.45702 16.0588 8.66771 16.0588 8.9276V15.5882C16.0588 16.3679 15.4268 17 14.6471 17H2.41177C1.63207 17 1 16.3679 1 15.5882V3.35294C1 2.57324 1.63207 1.94118 2.41177 1.94118H9.61539C9.87529 1.94118 10.086 2.15187 10.086 2.41176C10.086 2.67166 9.87528 2.88235 9.61539 2.88235L2.41177 2.88235C2.15187 2.88235 1.94118 3.09304 1.94118 3.35294L1.94118 15.5882C1.94118 15.8481 2.15187 16.0588 2.41177 16.0588H14.6471C14.907 16.0588 15.1176 15.8481 15.1176 15.5882Z" fill="#979899" stroke="#979899" stroke-width="0.4" stroke-linecap="round" stroke-linejoin="round"/>
</svg>
