<svg width="17" height="18" viewBox="0 0 17 18" fill="none" xmlns="http://www.w3.org/2000/svg">
<path fill-rule="evenodd" clip-rule="evenodd" d="M15.7253 1.04259C15.6657 1.01525 15.5993 1 15.5294 1H11.7647C11.5048 1 11.2941 1.21069 11.2941 1.47059C11.2941 1.73049 11.5048 1.94118 11.7647 1.94118L14.3933 1.94118L5.78489 10.5496C5.60112 10.7334 5.60112 11.0314 5.7849 11.2151C5.96867 11.3989 6.26663 11.3989 6.45041 11.2151L15.0588 2.6067V5.23529C15.0588 5.49519 15.2695 5.70588 15.5294 5.70588C15.7893 5.70588 16 5.49519 16 5.23529V1.47059C16 1.40406 15.9862 1.34076 15.9613 1.28339C15.9421 1.23903 15.9157 1.19703 15.8822 1.15913C15.8687 1.14382 15.8541 1.12939 15.8388 1.11595C15.8039 1.0855 15.7657 1.06105 15.7253 1.04259ZM14.1176 15.5882V8.9276C14.1176 8.66771 14.3283 8.45702 14.5882 8.45702C14.8481 8.45702 15.0588 8.66771 15.0588 8.9276V15.5882C15.0588 16.3679 14.4268 17 13.6471 17H1.41177C0.632069 17 0 16.3679 0 15.5882V3.35294C0 2.57324 0.632069 1.94118 1.41177 1.94118H8.61539C8.87529 1.94118 9.08597 2.15187 9.08597 2.41176C9.08597 2.67166 8.87528 2.88235 8.61539 2.88235L1.41177 2.88235C1.15187 2.88235 0.941177 3.09304 0.941177 3.35294L0.941177 15.5882C0.941177 15.8481 1.15187 16.0588 1.41177 16.0588H13.6471C13.907 16.0588 14.1176 15.8481 14.1176 15.5882Z" fill="#979899" stroke="#979899" stroke-width="0.4" stroke-linecap="round" stroke-linejoin="round"/>
</svg>
